<svg xmlns="http://www.w3.org/2000/svg" id="prefix__Button_clear" width="16" height="16" viewBox="0 0 16 16">
    <path id="prefix__패스_44" d="M0 0h16v16H0z" data-name="패스 44" style="fill:none"/>
    <path id="prefix__패스_45" d="M17.141 5.683a.906.906 0 0 0-1.283 0l-4.451 4.441-4.45-4.45a.907.907 0 0 0-1.283 1.283l4.451 4.451-4.451 4.45a.907.907 0 1 0 1.283 1.283l4.451-4.451 4.451 4.451a.907.907 0 1 0 1.283-1.283l-4.451-4.451 4.451-4.451a.912.912 0 0 0-.001-1.273z" data-name="패스 45" transform="translate(-3.407 -3.407)" style="fill:#606060"/>
</svg>
